<svg width="60" height="49" viewBox="0 0 60 49" fill="none" xmlns="http://www.w3.org/2000/svg">
<path d="M49.4365 22.894L36.085 36.3315H48.085L60 48.2466H24.1309L15.7188 39.7954L41.0703 14.4438L49.4365 22.894ZM17.1318 39.7983L24.5459 47.2466H57.5859L47.6699 37.3315H33.6807L35.375 35.6265L48.0283 22.894L41.0674 15.8618L17.1318 39.7983ZM44.2812 9.20459L18.9297 34.5562L10.5635 26.106L23.915 12.6685H11.915L0 0.753418H35.8691L44.2812 9.20459ZM12.3301 11.6685H26.3193L24.625 13.3735L11.9717 26.106L18.9326 33.1382L42.8682 9.20166L35.4541 1.75342H2.41406L12.3301 11.6685Z" fill="white"/>
</svg>
